# xmcd
#
# Track frame offsets:
#	150
#	12722
#	23365
#	35165
#	48860
#	60847
#	72407
#	83587
#	95002
#	108762
#	121697
#	139175
#	149220
#	161752
#	173387
#	186175
#	198452
#	209705
#	219885
#	231242
#	243977
#	255580
#	265412
#	276185
#	288825
#
# Disc length: 3990 seconds
#
# Revision: 1
# Processed by: cddbd v1.5.2PL0 Copyright (c) Steve Scherf et al.
# Submitted via: audiograbber 1.83.01
#
DISCID=6b0f9419
DTITLE=Toppa Records Artists - Toppa Country Then and Now
DYEAR=1996
DGENRE=Country
TTITLE0=Atlanta Georga - Gene Davis
TTITLE1=Key To My Heart - Eddy Drake
TTITLE2=I've Never Been Tempted (To Wander)- Bill Rubertus
TTITLE3=What A Place To Call Home - Chuck Mills
TTITLE4=World's Champion Fool - Dick Miller
TTITLE5=Have Yourself A Party - Wade Ray
TTITLE6=Mirror Of My Mind - Judy Lane
TTITLE7=Make Room For The Blues - Dick Miller
TTITLE8=A Game Two Can Play - Barbara Davenport
TTITLE9=Country Guitar - Vern Stoval and Phil Baugh
TTITLE10=All I Want Is Someone To Love Me - Allen Eugene Johnson
TTITLE11=Walk Faster Fool - Don Rice
TTITLE12=If You Leave While I'm Sleeping (I Won't Know That You've Gone) - Bill
TTITLE12=y Armstrong
TTITLE13=Ain't You Ever - Jonny and Jonie Mosby
TTITLE14=It's My Way - Wade Ray
TTITLE15=I Saw Me - Jimmy Snyder
TTITLE16=Home Away From Home - Janet McBride
TTITLE17=Some Other Tomorrow - Milt Forester
TTITLE18=It's Gone Too Far - Jack Tucker
TTITLE19=I'll Have A Cup Of Coffee (Then I'll Go) - Jonny and Jonie Mosby
TTITLE20=Welcome to My Home - Jimmy Snyder
TTITLE21=Temptations Got A Hold On Me - Smiley Monroe
TTITLE22=How Lonley Is Lonesome - Chuck Mills
TTITLE23=I'll Leave The Front Door Open - Eddy Drake
TTITLE24=It's Really A Wonderful Day - Allen Eugene Johnson
EXTD=Lots of Ralph Mooney Playing Steel on this CD.
EXTT0=
EXTT1=
EXTT2=
EXTT3=
EXTT4=
EXTT5=
EXTT6=
EXTT7=
EXTT8=
EXTT9=
EXTT10=
EXTT11=
EXTT12=
EXTT13=
EXTT14=
EXTT15=
EXTT16=
EXTT17=
EXTT18=
EXTT19=
EXTT20=
EXTT21=
EXTT22=
EXTT23=
EXTT24=
PLAYORDER=
